<?xml version="1.0" encoding="UTF-8"?>
<svg version="1.1" xmlns="http://www.w3.org/2000/svg" width="512" height="512">
<path d="M0 0 C0.77988281 0.350625 1.55976563 0.70125 2.36328125 1.0625 C14.97830826 7.33733209 23.84628204 18.35272554 29.37109375 31.08984375 C30 33 30 33 30 36 C31.11072876 35.9685791 31.11072876 35.9685791 32.24389648 35.93652344 C35.64162282 35.85270101 39.03913072 35.80113076 42.4375 35.75 C44.18450195 35.69972656 44.18450195 35.69972656 45.96679688 35.6484375 C56.92215982 35.52499679 64.92251428 38.54906978 73 46 C79 52.85714286 79 52.85714286 79 56 C79.60131083 55.99539104 80.20262167 55.99078207 80.82215405 55.98603344 C95.50582472 55.87523839 110.18947057 55.7926908 124.87346172 55.74093914 C131.97479526 55.71524212 139.07584846 55.68025643 146.17700195 55.62280273 C152.37197934 55.57270491 158.56675354 55.54064731 164.7619279 55.52955753 C168.03730503 55.52308275 171.3119713 55.50535651 174.58719444 55.47134972 C193.62383608 55.28164981 207.27928937 55.96287896 221.671875 69.58203125 C228.88340901 77.2210531 233.11592812 87.00037408 233.13701439 97.42171383 C233.13966622 98.0673932 233.14231804 98.71307257 233.14505023 99.37831798 C233.15273475 101.55080553 233.15330208 103.72323647 233.15390015 105.89573669 C233.15791534 107.46559876 233.16235366 109.03545978 233.1671797 110.60531956 C233.17914495 114.92658464 233.18479356 119.24783855 233.18936086 123.56911695 C233.19531723 128.22715129 233.2069271 132.88517229 233.21765137 137.54319763 C233.2421761 148.79715611 233.25680343 160.05111902 233.26971143 171.305096 C233.27342357 174.48416483 233.27739679 177.66323322 233.2814641 180.84230161 C233.30670283 200.58646761 233.32875466 220.33063431 233.34119225 240.07481289 C233.34412192 244.64842672 233.34708358 249.22204052 233.35009766 253.7956543 C233.35084371 254.9323971 233.35158976 256.0691399 233.35235842 257.24032945 C233.36500749 275.64800744 233.39822436 294.05558874 233.43989949 312.46322154 C233.48234252 331.36512902 233.5058901 350.26698703 233.51111281 369.16894203 C233.51452443 379.78033661 233.52625015 390.39158014 233.55921555 401.00292778 C233.58724985 410.04179754 233.59820057 419.08048528 233.58702008 428.11939513 C233.58184194 432.72866043 233.58466515 437.33754477 233.60948563 441.94675446 C233.63205439 446.1732379 233.63117959 450.3990684 233.61228175 454.62556387 C233.60949236 456.14788181 233.61502085 457.67024476 233.63009469 459.19249063 C233.77043882 474.29895768 229.83421561 485.6640882 219.41796875 496.671875 C211.41540477 504.22660693 201.48777284 508.15571028 190.64124393 508.13701439 C189.89426214 508.13966622 189.14728035 508.14231804 188.37766275 508.14505023 C185.86057299 508.15274388 183.34353201 508.15330243 180.82643127 508.15390015 C179.00908134 508.15791474 177.1917323 508.16235295 175.37438434 508.1671797 C170.36902474 508.17915165 165.36367478 508.18479511 160.35830367 508.18936086 C154.96406714 508.19531467 149.56984215 508.20692514 144.1756134 508.21765137 C131.14188303 508.24218152 118.10814884 508.25680398 105.07440248 508.26971143 C101.39319079 508.2734231 97.71197947 508.27739636 94.03076816 508.2814641 C71.17254973 508.30670173 48.31433071 508.3287556 25.45610142 508.34119225 C20.16059428 508.34412196 14.86508717 508.34708362 9.56958008 508.35009766 C7.59531055 508.35121673 7.59531055 508.35121673 5.58115678 508.35235842 C-15.73645612 508.36500991 -37.05396866 508.39822974 -58.37154602 508.43989949 C-80.25668615 508.482328 -102.14178357 508.5058884 -124.02696472 508.51111281 C-136.31509091 508.51452601 -148.60308671 508.52627053 -160.89117241 508.55921555 C-171.35734998 508.58722982 -181.82337045 508.59820929 -192.2895826 508.58702008 C-197.62792391 508.58183692 -202.9659363 508.58469831 -208.30422974 508.60948563 C-213.19683658 508.63201339 -218.08887889 508.63121067 -222.98149586 508.61228175 C-224.74607206 508.6094867 -226.51068684 508.61505262 -228.27520113 508.63009469 C-244.0536146 508.75631543 -255.92926419 505.52955141 -267.671875 494.41796875 C-274.88340901 486.7789469 -279.11592812 476.99962592 -279.13701439 466.57828617 C-279.13966622 465.9326068 -279.14231804 465.28692743 -279.14505023 464.62168202 C-279.15273475 462.44919447 -279.15330208 460.27676353 -279.15390015 458.10426331 C-279.15791534 456.53440124 -279.16235366 454.96454022 -279.1671797 453.39468044 C-279.17914495 449.07341536 -279.18479356 444.75216145 -279.18936086 440.43088305 C-279.19531723 435.77284871 -279.2069271 431.11482771 -279.21765137 426.45680237 C-279.2421761 415.20284389 -279.25680343 403.94888098 -279.26971143 392.694904 C-279.27342357 389.51583517 -279.27739679 386.33676678 -279.2814641 383.15769839 C-279.30670283 363.41353239 -279.32875466 343.66936569 -279.34119225 323.92518711 C-279.34412192 319.35157328 -279.34708358 314.77795948 -279.35009766 310.2043457 C-279.35084371 309.0676029 -279.35158976 307.9308601 -279.35235842 306.75967055 C-279.36500749 288.35199256 -279.39822436 269.94441126 -279.43989949 251.53677846 C-279.48234252 232.63487098 -279.5058901 213.73301297 -279.51111281 194.83105797 C-279.51452443 184.21966339 -279.52625015 173.60841986 -279.55921555 162.99707222 C-279.58724985 153.95820246 -279.59820057 144.91951472 -279.58702008 135.88060487 C-279.58184194 131.27133957 -279.58466515 126.66245523 -279.60948563 122.05324554 C-279.63205439 117.8267621 -279.63117959 113.6009316 -279.61228175 109.37443613 C-279.60949236 107.85211819 -279.61502085 106.32975524 -279.63009469 104.80750937 C-279.77043882 89.70104232 -275.83421561 78.3359118 -265.41796875 67.328125 C-258.3795354 60.68356991 -248.73540377 55.86947742 -239.00128174 55.87974548 C-237.99449875 55.87837082 -236.98771576 55.87699615 -235.95042419 55.87557983 C-234.30288902 55.88097275 -234.30288902 55.88097275 -232.62207031 55.88647461 C-230.88018181 55.88625557 -230.88018181 55.88625557 -229.10310364 55.8860321 C-225.26142515 55.88672925 -221.41979503 55.89451246 -217.578125 55.90234375 C-214.91583168 55.90420863 -212.25354105 55.90568139 -209.59124756 55.90663147 C-203.29795503 55.90973859 -197.0046799 55.91794365 -190.71139503 55.92798096 C-183.54578201 55.9391613 -176.38016816 55.94465739 -169.21454859 55.94967639 C-154.47635684 55.96012677 -139.73817872 55.97771425 -125 56 C-124.69980957 55.21753906 -124.39961914 54.43507812 -124.09033203 53.62890625 C-121.13799377 46.51050534 -114.82698554 41.29226592 -108 38 C-103.74846345 36.36867136 -100.27265173 35.75967672 -95.7265625 35.8046875 C-94.57285156 35.81113281 -93.41914063 35.81757812 -92.23046875 35.82421875 C-91.04066406 35.84097656 -89.85085937 35.85773437 -88.625 35.875 C-87.41199219 35.88402344 -86.19898438 35.89304688 -84.94921875 35.90234375 C-81.96594227 35.92583412 -78.98307406 35.95868318 -76 36 C-75.85755859 35.06446289 -75.71511719 34.12892578 -75.56835938 33.16503906 C-73.47037503 21.48193379 -63.60225853 10.95590771 -54.16796875 4.30859375 C-38.28289976 -5.27969114 -17.12218524 -8.27526918 0 0 Z " fill="#FEF4F4" transform="translate(279,4)"/>
<path d="M0 0 C14.23855784 -0.0701397 28.47708882 -0.12281287 42.71578407 -0.15543652 C49.32734798 -0.17109402 55.93879585 -0.19233422 62.55029297 -0.22631836 C68.93044552 -0.25890821 75.31048643 -0.27685238 81.69071579 -0.28463173 C84.12518445 -0.29017586 86.55964699 -0.3010021 88.99406815 -0.31719017 C92.40324369 -0.33895894 95.81195757 -0.34196708 99.22119141 -0.34057617 C100.22820099 -0.351362 101.23521057 -0.36214783 102.2727356 -0.3732605 C107.60435632 -0.34971429 111.41500215 -0.04113935 116 3 C120.10006537 7.54331568 121.12470977 9.97098338 121.13142776 16.02338028 C121.13526891 17.31600194 121.13911005 18.6086236 121.1430676 19.94041562 C121.14228726 21.38852014 121.14140845 22.8366246 121.14044189 24.284729 C121.14302399 25.81248066 121.14603671 27.34023164 121.1494453 28.86798167 C121.15753696 33.08186655 121.15930607 37.29573442 121.16004276 41.50962615 C121.16188958 46.0482668 121.16943505 50.58689854 121.17617798 55.12553406 C121.18977748 65.05731871 121.19578861 74.98909934 121.20018864 84.92089176 C121.20294849 91.11914468 121.20718538 97.31739603 121.21169281 103.51564789 C121.22388789 120.66728747 121.23418653 137.81892579 121.2375679 154.97056961 C121.23778747 156.06897377 121.23800703 157.16737793 121.23823325 158.29906707 C121.23845153 159.40014381 121.23866981 160.50122056 121.2388947 161.63566327 C121.23933817 163.86697213 121.23978474 166.09828099 121.24023438 168.32958984 C121.2404558 169.43640306 121.24067723 170.54321627 121.24090537 171.68356928 C121.24485397 189.62078516 121.26230882 207.55796042 121.2855939 225.49516061 C121.30929196 243.89863648 121.32176906 262.30209196 121.32293582 280.70558333 C121.32385348 291.04343231 121.32962866 301.38122838 121.34775543 311.71906281 C121.36313563 320.52173155 121.36828923 329.32433105 121.36001733 338.12701067 C121.35610335 342.61986124 121.35707676 347.11257229 121.37107468 351.60540581 C121.38376896 355.71736151 121.38265564 359.82907222 121.37048396 363.94102737 C121.36851917 365.42962671 121.37164136 366.91824313 121.38032833 368.40681842 C121.39138298 370.42893572 121.38216314 372.4511335 121.3719368 374.47325516 C121.37253389 375.59690263 121.37313097 376.7205501 121.37374616 377.8782475 C120.78998012 382.75421224 119.08784164 385.99374649 115.5 389.3125 C110.95120235 392.38293842 106.76639899 392.13886636 101.477005 392.12025452 C100.59647797 392.12110894 99.71595094 392.12196337 98.80874127 392.12284368 C95.84683897 392.12449587 92.88499282 392.11898134 89.9230957 392.11352539 C87.80445355 392.11324344 85.68581129 392.11340141 83.56716919 392.1139679 C77.80512539 392.11425555 72.04310229 392.10836396 66.28106332 392.10139394 C60.26323822 392.0951551 54.24541267 392.09455618 48.22758484 392.09336853 C36.82728028 392.09025678 25.42698528 392.08204549 14.02668494 392.07201904 C1.04983815 392.06085306 -11.9270091 392.05534623 -24.9038595 392.05032361 C-51.60257952 392.03986276 -78.30128644 392.02151921 -105 392 C-105 371.21 -105 350.42 -105 329 C-122.45642716 329.15804316 -122.45642716 329.15804316 -139.91235352 329.36035156 C-142.10952984 329.37203993 -144.30671486 329.3822314 -146.50390625 329.390625 C-147.63405151 329.41108887 -148.76419678 329.43155273 -149.92858887 329.45263672 C-156.52950969 329.45554943 -160.64916211 328.97834055 -166 325 C-168.83895714 321.54913731 -169.88537524 317.81670139 -170.5 313.4375 C-169.89813605 309.29968533 -168.87482468 306.09097691 -166 303 C-159.67792882 298.33023851 -154.1900946 298.47079438 -146.50390625 298.609375 C-145.31522446 298.61503479 -144.12654266 298.62069458 -142.90184021 298.62652588 C-139.12164293 298.64883774 -135.3424087 298.69902737 -131.5625 298.75 C-128.99285227 298.77007158 -126.42318962 298.78832119 -123.85351562 298.8046875 C-117.56834485 298.84527627 -111.28524481 298.92358365 -105 299 C-105 289.1 -105 279.2 -105 269 C-108.81691406 269.04640625 -112.63382813 269.0928125 -116.56640625 269.140625 C-120.27317984 269.1718419 -123.97993865 269.19611769 -127.68676758 269.21972656 C-130.25812359 269.23981149 -132.82943409 269.26708479 -135.40063477 269.30175781 C-139.10183966 269.35041081 -142.80243933 269.37300083 -146.50390625 269.390625 C-148.22148888 269.42159271 -148.22148888 269.42159271 -149.97377014 269.45318604 C-156.55716225 269.45502669 -160.66390394 268.96738002 -166 265 C-168.83895714 261.54913731 -169.88537524 257.81670139 -170.5 253.4375 C-169.89813605 249.29968533 -168.87482468 246.09097691 -166 243 C-148.30780751 232.89017572 -125.37700229 239 -105 239 C-105 173.33 -105 107.66 -105 40 C-73.98 39.67 -42.96 39.34 -11 39 C-4.46059698 35.78511985 -4.46059698 35.78511985 -1.46630859 30.32373047 C-0.35975975 24.8095253 -0.41152008 19.1670367 -0.3125 13.5625 C-0.27833984 12.25861328 -0.24417969 10.95472656 -0.20898438 9.61132812 C-0.12683847 6.40763802 -0.0575759 3.20421021 0 0 Z " fill="#F4EFEA" transform="translate(361,90)"/>
<path d="M0 0 C1.00678299 -0.00137466 2.01356598 -0.00274933 3.05085754 -0.00416565 C4.69839272 0.00122726 4.69839272 0.00122726 6.37921143 0.00672913 C8.12109993 0.00651009 8.12109993 0.00651009 9.8981781 0.00628662 C13.73985659 0.00698377 17.58148671 0.01476698 21.42315674 0.02259827 C24.08545005 0.02446315 26.74774068 0.02593591 29.41003418 0.02688599 C35.7033267 0.02999311 41.99660184 0.03819817 48.28988671 0.04823548 C55.45549973 0.05941582 62.62111358 0.06491191 69.78673315 0.06993091 C84.5249249 0.08038129 99.26310302 0.09796876 114.00128174 0.12025452 C113.52561768 1.74447327 113.52561768 1.74447327 113.04034424 3.40150452 C111.69803766 8.77073084 111.54986243 14.10906767 111.37628174 19.62025452 C111.31827393 21.1400592 111.31827393 21.1400592 111.25909424 22.69056702 C111.16564555 25.16695736 111.07988301 27.64335602 111.00128174 30.12025452 C110.44082374 30.12172108 109.88036573 30.12318764 109.30292416 30.12469864 C95.64756931 30.16179686 81.99246514 30.22110273 68.33730984 30.30415726 C61.73367257 30.3436542 55.13016909 30.37583205 48.52642822 30.39125061 C42.15258938 30.40640222 35.77911833 30.44082215 29.40544319 30.48856354 C26.97464254 30.5033926 24.54378939 30.5112964 22.11294365 30.51213837 C18.70610284 30.51450505 15.30028084 30.54156298 11.89361572 30.57435608 C10.89020142 30.56932571 9.88678711 30.56429535 8.85296631 30.55911255 C2.73245494 30.65016834 -1.10895061 31.31333829 -5.99871826 35.12025452 C-8.6057099 39.41407117 -9.37406062 42.60939034 -9.37624168 47.60179806 C-9.38406493 48.89480042 -9.39188817 50.18780279 -9.39994848 51.51998705 C-9.39346284 52.94777421 -9.38669289 54.37556011 -9.37966919 55.80334473 C-9.38312658 57.32558896 -9.38789169 58.84783069 -9.39385092 60.37006718 C-9.40637962 64.55024569 -9.40018204 68.73021885 -9.39089227 72.91039813 C-9.38410972 77.41968532 -9.3945791 81.928937 -9.40283203 86.43821716 C-9.41618036 95.27106096 -9.41328663 104.10382832 -9.40459411 112.93667512 C-9.39782187 120.11515942 -9.39689885 127.29362227 -9.40016556 134.47210884 C-9.40062526 135.49338314 -9.40108496 136.51465744 -9.40155859 137.56687944 C-9.40251775 139.64152312 -9.40349039 141.7161668 -9.40447636 143.79081047 C-9.41303359 163.25068456 -9.40319112 182.71051627 -9.38707526 202.1703834 C-9.37367379 218.8695967 -9.37599812 235.56874743 -9.38983154 252.26795959 C-9.40588494 271.65614908 -9.41220746 291.0443014 -9.40299475 310.43249661 C-9.4020391 312.49985921 -9.40109599 314.56722181 -9.40016556 316.63458443 C-9.39970273 317.6517862 -9.3992399 318.66898798 -9.39876305 319.71701406 C-9.3961723 326.88676516 -9.40054606 334.0564927 -9.40760422 341.22624016 C-9.41601682 349.96401582 -9.41374418 358.70171062 -9.39776199 367.43947702 C-9.38987576 371.89804284 -9.38679366 376.35647384 -9.39670944 380.81503868 C-9.40564966 384.89667614 -9.40073462 388.97805382 -9.38477679 393.05966771 C-9.3814261 394.53604737 -9.38312953 396.01244899 -9.39040415 397.48881453 C-9.72545243 407.8232225 -9.72545243 407.8232225 -5.99871826 417.12025452 C-0.94678082 420.56393137 2.33059851 421.62031145 8.56132603 421.62082577 C9.29360604 421.62633993 10.02588606 421.6318541 10.78035638 421.63753536 C13.22963394 421.65111098 15.67789321 421.63624454 18.12715149 421.62145996 C19.90258541 421.62535353 21.67801621 421.63099442 23.45343965 421.63823086 C28.32882824 421.65299533 33.20389416 421.64279833 38.07927239 421.62849414 C43.3383615 421.61739401 48.597405 421.62932375 53.85649109 421.63833618 C64.15742052 421.65227687 74.45822745 421.64470645 84.75915105 421.6296606 C96.75103655 421.61281073 108.74289145 421.61600945 120.73478513 421.61975468 C142.12841099 421.62563472 163.52197802 421.61145569 184.91558838 421.58680725 C205.68286342 421.56288307 226.45005985 421.55580399 247.21734619 421.56629944 C269.82400053 421.57770398 292.4306185 421.57964467 315.03727239 421.56520134 C317.44695659 421.56367548 319.85664079 421.56215512 322.266325 421.56064034 C323.45198323 421.55988252 324.63764145 421.55912471 325.85922872 421.55834393 C334.2216951 421.55359775 342.58414527 421.55545488 350.9466114 421.55970573 C361.13439677 421.56462802 371.32210776 421.55866749 381.50987608 421.53881144 C386.70956297 421.52892748 391.90913652 421.52384627 397.1088295 421.53170395 C401.86638786 421.5387465 406.6237172 421.53198954 411.38124531 421.51410032 C413.10454563 421.51004659 414.82786674 421.51107114 416.55115939 421.51761919 C418.89007433 421.52574747 421.2282135 421.51548439 423.56707859 421.50057125 C424.8672437 421.49954212 426.1674088 421.49851299 427.50697285 421.49745268 C432.18987833 420.99194976 435.62677013 419.63695698 438.81378174 416.12025452 C441.05165855 412.35119883 441.1286613 409.26798593 441.13550282 404.97382641 C441.14218958 403.03190734 441.14218958 403.03190734 441.14901143 401.05075759 C441.14892213 399.60559538 441.14873227 398.16043318 441.14845276 396.715271 C441.15175124 395.1866561 441.15547678 393.65804207 441.15959424 392.12942916 C441.1696239 387.91780569 441.17333257 383.70619647 441.17598355 379.49456275 C441.17988366 374.95661984 441.18946211 370.41868825 441.19819641 365.88075256 C441.2179677 354.91710678 441.22802726 343.95346006 441.2369242 332.9898009 C441.24130546 327.82977645 441.24667264 322.66975302 441.25191307 317.50972939 C441.26892498 300.3623396 441.28342036 283.21495045 441.29066181 266.06755352 C441.29257177 261.61677741 441.2944921 257.16600131 441.29644775 252.71522522 C441.29693149 251.60897751 441.29741523 250.50272979 441.29791363 249.36295942 C441.30621847 231.43226051 441.33156322 213.50162821 441.36402843 195.5709584 C441.3970707 177.1719712 441.41510795 158.77301788 441.41830605 140.37400085 C441.42047363 130.0395007 441.42925859 119.70509773 441.45476723 109.37062645 C441.47643545 100.57162881 441.48454375 91.77275194 441.47480045 82.97373065 C441.47024465 78.48285613 441.47221605 73.99223103 441.49156189 69.50139046 C441.50911512 65.39126402 441.5082601 61.2815704 441.4926646 57.17143986 C441.49027656 55.68354046 441.49467375 54.19561169 441.50649325 52.70775732 C441.52155625 50.68662681 441.50958234 48.66534881 441.49626637 46.64420605 C441.49773158 44.95954795 441.49773158 44.95954795 441.49922639 43.24085635 C440.87973456 39.3585226 439.41499854 37.18855899 437.00128174 34.12025452 C431.76604193 30.36505937 426.41805972 30.67905214 420.22247314 30.68788147 C418.61181976 30.67259399 418.61181976 30.67259399 416.96862793 30.65699768 C413.42998023 30.62687528 409.89160329 30.61760261 406.35284424 30.60853577 C403.89518332 30.59168858 401.43753101 30.57353829 398.97988892 30.55413818 C392.51911104 30.50663671 386.0583681 30.47682806 379.59747314 30.45069885 C373.00153709 30.42089427 366.40572138 30.37436352 359.80987549 30.32923889 C346.87374302 30.24320396 333.93758133 30.17529115 321.00128174 30.12025452 C320.9814624 29.46017395 320.96164307 28.80009338 320.94122314 28.12001038 C320.84534822 25.09889088 320.7359242 22.07840444 320.62628174 19.05775452 C320.57987549 17.50024475 320.57987549 17.50024475 320.53253174 15.91127014 C320.31929835 10.31389361 319.84999889 5.41840732 318.00128174 0.12025452 C333.29232615 0.00305076 348.58334975 -0.08491398 363.87474346 -0.13880634 C370.976077 -0.16450336 378.07713019 -0.19948905 385.17828369 -0.25694275 C391.37326108 -0.30704057 397.56803528 -0.33909817 403.76320964 -0.35018796 C407.03858677 -0.35666273 410.31325304 -0.37438897 413.58847618 -0.40839577 C432.62511782 -0.59809568 446.28057111 0.08313348 460.67315674 13.70228577 C467.88469075 21.34130761 472.11720986 31.1206286 472.13829613 41.54196835 C472.14094795 42.18764772 472.14359978 42.83332709 472.14633197 43.4985725 C472.15401649 45.67106004 472.15458381 47.84349098 472.15518188 50.01599121 C472.15919708 51.58585327 472.1636354 53.1557143 472.16846144 54.72557408 C472.18042669 59.04683916 472.1860753 63.36809307 472.1906426 67.68937147 C472.19659897 72.34740581 472.20820883 77.00542681 472.21893311 81.66345215 C472.24345784 92.91741063 472.25808517 104.17137353 472.27099317 115.42535052 C472.27470531 118.60441934 472.27867853 121.78348773 472.28274584 124.96255612 C472.30798457 144.70672213 472.3300364 164.45088883 472.34247398 184.19506741 C472.34540366 188.76868123 472.34836532 193.34229504 472.35137939 197.91590881 C472.35212545 199.05265161 472.3528715 200.18939442 472.35364015 201.36058397 C472.36628923 219.76826196 472.3995061 238.17584325 472.44118123 256.58347606 C472.48362426 275.48538354 472.50717183 294.38724155 472.51239455 313.28919655 C472.51580616 323.90059113 472.52753189 334.51183466 472.56049728 345.1231823 C472.58853158 354.16205205 472.59948231 363.20073979 472.58830182 372.23964965 C472.58312368 376.84891495 472.58594688 381.45779929 472.61076736 386.06700897 C472.63333613 390.29349241 472.63246132 394.51932291 472.61356349 398.74581838 C472.6107741 400.26813633 472.61630259 401.79049928 472.63137643 403.31274515 C472.77172056 418.4192122 468.83549735 429.78434271 458.41925049 440.79212952 C450.41668651 448.34686145 440.48905458 452.2759648 429.64252567 452.25726891 C428.89554388 452.25992073 428.14856209 452.26257256 427.37894449 452.26530474 C424.86185473 452.2729984 422.34481375 452.27355694 419.82771301 452.27415466 C418.01036308 452.27816925 416.19301404 452.28260747 414.37566608 452.28743422 C409.37030648 452.29940616 404.36495652 452.30504962 399.3595854 452.30961537 C393.96534888 452.31556918 388.57112389 452.32717965 383.17689514 452.33790588 C370.14316477 452.36243604 357.10943058 452.3770585 344.07568422 452.38996595 C340.39447253 452.39367761 336.71326121 452.39765087 333.03204989 452.40171862 C310.17383147 452.42695625 287.31561244 452.44901012 264.45738316 452.46144676 C259.16187602 452.46437648 253.8663689 452.46733814 248.57086182 452.47035217 C246.59659229 452.47147125 246.59659229 452.47147125 244.58243852 452.47261293 C223.26482562 452.48526442 201.94731308 452.51848425 180.62973572 452.56015401 C158.74459559 452.60258252 136.85949816 452.62614292 114.97431701 452.63136733 C102.68619083 452.63478053 90.39819502 452.64652504 78.11010933 452.67947006 C67.64393176 452.70748434 57.17791129 452.71846381 46.71169914 452.7072746 C41.37335783 452.70209144 36.03534543 452.70495283 30.697052 452.72974014 C25.80444516 452.75226791 20.91240284 452.75146518 16.01978587 452.73253627 C14.25520967 452.72974122 12.4905949 452.73530713 10.7260806 452.75034921 C-5.05233286 452.87656995 -16.92798245 449.64980593 -28.67059326 438.53822327 C-35.88212727 430.89920142 -40.11464638 421.11988044 -40.13573265 410.69854069 C-40.13838448 410.05286132 -40.1410363 409.40718195 -40.14376849 408.74193653 C-40.15145301 406.56944899 -40.15202034 404.39701805 -40.15261841 402.22451782 C-40.15663361 400.65465576 -40.16107193 399.08479473 -40.16589797 397.51493496 C-40.17786321 393.19366988 -40.18351182 388.87241596 -40.18807912 384.55113757 C-40.1940355 379.89310322 -40.20564536 375.23508223 -40.21636963 370.57705688 C-40.24089436 359.3230984 -40.25552169 348.0691355 -40.2684297 336.81515852 C-40.27214183 333.63608969 -40.27611506 330.4570213 -40.28018236 327.27795291 C-40.30542109 307.53378691 -40.32747292 287.7896202 -40.33991051 268.04544163 C-40.34284018 263.4718278 -40.34580185 258.89821399 -40.34881592 254.32460022 C-40.34956197 253.18785742 -40.35030802 252.05111462 -40.35107668 250.87992506 C-40.36372576 232.47224708 -40.39694262 214.06466578 -40.43861775 195.65703297 C-40.48106078 176.7551255 -40.50460836 157.85326748 -40.50983107 138.95131248 C-40.51324269 128.3399179 -40.52496842 117.72867437 -40.55793381 107.11732674 C-40.58596811 98.07845698 -40.59691883 89.03976924 -40.58573835 80.00085939 C-40.5805602 75.39159408 -40.58338341 70.78270974 -40.60820389 66.17350006 C-40.63077265 61.94701662 -40.62989785 57.72118612 -40.61100002 53.49469065 C-40.60821063 51.9723727 -40.61373911 50.45000976 -40.62881295 48.92776389 C-40.76915708 33.82129683 -36.83293387 22.45616632 -26.41668701 11.44837952 C-19.37825366 4.80382443 -9.73412203 -0.01026806 0 0 Z " fill="#FF9100" transform="translate(39.99871826171875,59.87974548339844)"/>
<path d="M0 0 C15.29104441 -0.11720375 30.58206801 -0.2051685 45.87346172 -0.25906086 C52.97479526 -0.28475788 60.07584846 -0.31974357 67.17700195 -0.37719727 C73.37197934 -0.42729509 79.56675354 -0.45935269 85.7619279 -0.47044247 C89.03730503 -0.47691725 92.3119713 -0.49464349 95.58719444 -0.52865028 C114.62383608 -0.71835019 128.27928937 -0.03712104 142.671875 13.58203125 C149.88340901 21.2210531 154.11592812 31.00037408 154.13701439 41.42171383 C154.13966622 42.0673932 154.14231804 42.71307257 154.14505023 43.37831798 C154.15273475 45.55080553 154.15330208 47.72323647 154.15390015 49.89573669 C154.15791534 51.46559876 154.16235366 53.03545978 154.1671797 54.60531956 C154.17914495 58.92658464 154.18479356 63.24783855 154.18936086 67.56911695 C154.19531723 72.22715129 154.2069271 76.88517229 154.21765137 81.54319763 C154.2421761 92.79715611 154.25680343 104.05111902 154.26971143 115.305096 C154.27342357 118.48416483 154.27739679 121.66323322 154.2814641 124.84230161 C154.30670283 144.58646761 154.32875466 164.33063431 154.34119225 184.07481289 C154.34412192 188.64842672 154.34708358 193.22204052 154.35009766 197.7956543 C154.35084371 198.9323971 154.35158976 200.0691399 154.35235842 201.24032945 C154.36500749 219.64800744 154.39822436 238.05558874 154.43989949 256.46322154 C154.48234252 275.36512902 154.5058901 294.26698703 154.51111281 313.16894203 C154.51452443 323.78033661 154.52625015 334.39158014 154.55921555 345.00292778 C154.58724985 354.04179754 154.59820057 363.08048528 154.58702008 372.11939513 C154.58184194 376.72866043 154.58466515 381.33754477 154.60948563 385.94675446 C154.63205439 390.1732379 154.63117959 394.3990684 154.61228175 398.62556387 C154.60949236 400.14788181 154.61502085 401.67024476 154.63009469 403.19249063 C154.77043882 418.29895768 150.83421561 429.6640882 140.41796875 440.671875 C131.83027507 448.77899214 121.65510528 452.15983469 110.12896729 452.12025452 C108.77014313 452.12153615 108.77014313 452.12153615 107.38386798 452.12284368 C104.34215502 452.12449351 101.30049696 452.1189852 98.25878906 452.11352539 C96.08088685 452.11324339 93.90298455 452.11340151 91.7250824 452.1139679 C85.80607825 452.11425535 79.88709428 452.10836695 73.96809483 452.10139394 C67.78478154 452.09515181 61.60146781 452.09455592 55.41815186 452.09336853 C43.70622021 452.09025776 31.99429787 452.08204777 20.28237033 452.07201904 C6.95000518 452.06076993 -6.38236 452.05534546 -19.71472883 452.05032361 C-47.1431579 452.03986497 -74.57157803 452.02206949 -102 452 C-102 442.1 -102 432.2 -102 422 C-99.31978729 421.99413376 -96.63957458 421.98826752 -93.87814331 421.98222351 C-68.65647532 421.92560341 -43.43489338 421.85254781 -18.21331596 421.76428509 C-5.24573453 421.71930178 7.72181929 421.67989292 20.68945312 421.65356445 C31.99081543 421.63060496 43.29209051 421.5972298 54.59338367 421.55129844 C60.57843441 421.52733869 66.56339862 421.50862791 72.54849625 421.50238609 C78.18077982 421.49634776 83.8128419 421.47639297 89.44504356 421.44572449 C91.51303127 421.43692422 93.5810479 421.43322578 95.64905357 421.43499184 C98.47170641 421.43664139 101.29368151 421.41997221 104.11624146 421.39872742 C104.93531829 421.40357499 105.75439512 421.40842257 106.59829247 421.41341704 C111.46296513 421.35295653 114.76549625 420.64871777 119 418 C122.73910665 413.87408921 123.12556593 410.28608136 123.13422108 404.85357189 C123.14090784 402.91165283 123.14090784 402.91165283 123.14772969 400.93050307 C123.14764039 399.48534086 123.14745053 398.04017866 123.14717102 396.59501648 C123.1504695 395.06640158 123.15419504 393.53778756 123.1583125 392.00917464 C123.16834216 387.79755117 123.17205084 383.58594195 123.17470181 379.37430823 C123.17860193 374.83636532 123.18818037 370.29843374 123.19691467 365.76049805 C123.21668596 354.79685226 123.22674552 343.83320554 123.23564246 332.86954638 C123.24002372 327.70952193 123.2453909 322.54949851 123.25063133 317.38947487 C123.26764324 300.24208508 123.28213862 283.09469594 123.28938007 265.947299 C123.29129003 261.4965229 123.29321036 257.04574679 123.29516602 252.5949707 C123.29564976 251.48872299 123.2961335 250.38247528 123.2966319 249.24270491 C123.30493674 231.31200599 123.33028148 213.38137369 123.36274669 195.45070388 C123.39578897 177.05171668 123.41382621 158.65276337 123.41702431 140.25374633 C123.41919189 129.91924618 123.42797685 119.58484321 123.45348549 109.25037193 C123.47515371 100.45137429 123.48326201 91.65249743 123.47351871 82.85347613 C123.46896291 78.36260162 123.47093431 73.87197651 123.49028015 69.38113594 C123.50783338 65.2710095 123.50697836 61.16131588 123.49138286 57.05118535 C123.48899482 55.56328594 123.49339201 54.07535718 123.50521151 52.5875028 C123.52027451 50.5663723 123.50830061 48.5450943 123.49498463 46.52395153 C123.49644984 44.83929343 123.49644984 44.83929343 123.49794465 43.12060183 C122.87845283 39.23826808 121.4137168 37.06830448 119 34 C113.76476019 30.24480486 108.41677798 30.55879762 102.22119141 30.56762695 C100.61053802 30.55233948 100.61053802 30.55233948 98.96734619 30.53674316 C95.42869849 30.50662076 91.89032155 30.49734809 88.3515625 30.48828125 C85.89390158 30.47143406 83.43624927 30.45328377 80.97860718 30.43388367 C74.5178293 30.38638219 68.05708636 30.35657354 61.59619141 30.33044434 C55.00025535 30.30063976 48.40443964 30.254109 41.80859375 30.20898438 C28.87246128 30.12294944 15.93629959 30.05503663 3 30 C2.970271 29.00987915 2.970271 29.00987915 2.93994141 27.99975586 C2.84406648 24.97863636 2.73464247 21.95814992 2.625 18.9375 C2.5940625 17.89916016 2.563125 16.86082031 2.53125 15.79101562 C2.31801661 10.19363909 1.84871715 5.2981528 0 0 Z " fill="#FE6425" transform="translate(358,60)"/>
<path d="M0 0 C0.77988281 0.350625 1.55976563 0.70125 2.36328125 1.0625 C14.97830826 7.33733209 23.84628204 18.35272554 29.37109375 31.08984375 C30 33 30 33 30 36 C31.11072876 35.9685791 31.11072876 35.9685791 32.24389648 35.93652344 C35.64162282 35.85270101 39.03913072 35.80113076 42.4375 35.75 C44.18450195 35.69972656 44.18450195 35.69972656 45.96679688 35.6484375 C56.96287908 35.52453798 64.87140063 38.57450733 73 46 C80.93374105 54.4901799 82.46415381 63.45719406 82.3984375 74.7890625 C82.40274277 76.44305557 82.40274277 76.44305557 82.40713501 78.13046265 C82.40916617 80.44830849 82.40370307 82.76617184 82.39111328 85.08398438 C82.375016 88.62148434 82.39101093 92.15784719 82.41015625 95.6953125 C82.40817425 97.95573167 82.40433148 100.21615014 82.3984375 102.4765625 C82.40451019 103.52776276 82.41058289 104.57896301 82.4168396 105.66201782 C82.36071011 111.54700617 81.88305742 115.82499391 79 121 C74.08379097 125.67039858 70.08134382 126.14884835 63.5491333 126.14717102 C62.78380114 126.15084771 62.01846899 126.1545244 61.22994494 126.1583125 C58.65752165 126.16935268 56.08513875 126.17319374 53.51269531 126.17700195 C51.67141593 126.18326633 49.83013781 126.18991311 47.98886108 126.19691467 C42.98046839 126.21432618 37.97208524 126.22487679 32.96366978 126.2331202 C29.83501838 126.2382699 26.70636995 126.24434564 23.57772064 126.25063133 C13.79013858 126.2696836 4.00256406 126.28391482 -5.78503299 126.2922433 C-17.08550259 126.30201772 -28.38577641 126.32834249 -39.68617702 126.36874419 C-48.41918503 126.39889613 -57.1521369 126.41371129 -65.88519597 126.41702431 C-71.10180293 126.41937577 -76.31820074 126.42834883 -81.53475189 126.45348549 C-86.44315498 126.47675512 -91.35121106 126.48100386 -96.259655 126.47072411 C-98.05956806 126.47022837 -99.85949814 126.47655986 -101.65935898 126.49028015 C-104.12038741 126.50798841 -106.58016903 126.50089888 -109.04119873 126.48774719 C-110.10479178 126.50420106 -110.10479178 126.50420106 -111.18987155 126.52098733 C-116.60156286 126.45136284 -119.61741684 124.93925417 -124 122 C-128.81278412 116.56313262 -128.57168511 109.50312161 -128.49609375 102.6328125 C-128.49754898 101.55804657 -128.49900421 100.48328064 -128.50050354 99.37594604 C-128.49885017 97.11176838 -128.48735224 94.84757882 -128.46655273 92.58349609 C-128.43764626 89.14241064 -128.44594784 85.70287311 -128.45898438 82.26171875 C-128.45274437 80.05207594 -128.44435139 77.84243794 -128.43359375 75.6328125 C-128.43652939 74.61583282 -128.43946503 73.59885315 -128.44248962 72.55105591 C-128.29997381 61.60228833 -125.82049264 52.87885453 -118 45 C-111.08785468 39.26904407 -104.89253139 35.71393533 -95.7265625 35.8046875 C-93.99599609 35.81435547 -93.99599609 35.81435547 -92.23046875 35.82421875 C-91.04066406 35.84097656 -89.85085937 35.85773437 -88.625 35.875 C-87.41199219 35.88402344 -86.19898438 35.89304688 -84.94921875 35.90234375 C-81.96594227 35.92583412 -78.98307406 35.95868318 -76 36 C-75.85755859 35.06446289 -75.71511719 34.12892578 -75.56835938 33.16503906 C-73.47037503 21.48193379 -63.60225853 10.95590771 -54.16796875 4.30859375 C-38.28289976 -5.27969114 -17.12218524 -8.27526918 0 0 Z " fill="#FEDE55" transform="translate(279,4)"/>
<path d="M0 0 C0 42.9 0 85.8 0 130 C-23.0484375 130.12375 -23.0484375 130.12375 -46.5625 130.25 C-53.82809937 130.30462402 -53.82809937 130.30462402 -61.24047852 130.36035156 C-67.17565918 130.37841797 -67.17565918 130.37841797 -69.95811462 130.3817749 C-71.89284448 130.3878993 -73.82755948 130.40193057 -75.76219177 130.42230225 C-78.70053447 130.45168434 -81.63794789 130.45562072 -84.57641602 130.45410156 C-85.43185533 130.468494 -86.28729464 130.48288643 -87.16865635 130.497715 C-92.92729313 130.45799868 -96.2909851 129.37297034 -101 126 C-105.81278412 120.56313262 -105.57168511 113.50312161 -105.49609375 106.6328125 C-105.49754898 105.55804657 -105.49900421 104.48328064 -105.50050354 103.37594604 C-105.49885017 101.11176838 -105.48735224 98.84757882 -105.46655273 96.58349609 C-105.43764626 93.14241064 -105.44594784 89.70287311 -105.45898438 86.26171875 C-105.45274437 84.05207594 -105.44435139 81.84243794 -105.43359375 79.6328125 C-105.43652939 78.61583282 -105.43946503 77.59885315 -105.44248962 76.55105591 C-105.29997381 65.60228833 -102.82049264 56.87885453 -95 49 C-88.08785468 43.26904407 -81.89253139 39.71393533 -72.7265625 39.8046875 C-70.99599609 39.81435547 -70.99599609 39.81435547 -69.23046875 39.82421875 C-68.04066406 39.84097656 -66.85085937 39.85773437 -65.625 39.875 C-64.41199219 39.88402344 -63.19898438 39.89304688 -61.94921875 39.90234375 C-58.96594227 39.92583412 -55.98307406 39.95868318 -53 40 C-52.85755859 39.06446289 -52.71511719 38.12892578 -52.56835938 37.16503906 C-50.47037503 25.48193379 -40.60225853 14.95590771 -31.16796875 8.30859375 C-20.79474902 2.04728094 -12.22203953 0 0 0 Z " fill="#FFF69F" transform="translate(256,0)"/>
<path d="M0 0 C11.66184722 8.00588351 19.80572948 18.63855286 22.75390625 32.68359375 C24.64533099 46.05988581 22.54984488 59.27502357 15.1875 70.75 C6.67888879 81.95440881 -4.66132224 90.53757398 -18.8125 92.75 C-35.55905239 93.76612687 -48.08321473 90.45312288 -61 79.5625 C-70.38226903 70.73992676 -75.97178841 59.89273853 -77.15625 47.01171875 C-77.52895505 31.80845869 -73.63022993 18.69961876 -63.0625 7.4375 C-55.64748324 0.566442 -47.64826909 -3.97076652 -37.8125 -6.25 C-37.20148438 -6.43175781 -36.59046875 -6.61351562 -35.9609375 -6.80078125 C-23.41174719 -9.42470286 -10.83470258 -6.51274419 0 0 Z " fill="#566A6F" transform="translate(429.8125,188.25)"/>
<path d="M0 0 C10.89725714 8.08868571 20.04569168 19.25830075 22.39453125 32.98046875 C23.91111885 48.02968413 21.88420892 61.11418078 12.45703125 73.359375 C4.38175682 82.91715121 -5.14039295 89.51327716 -17.5390625 92.1875 C-35.0507938 93.62288781 -47.98739145 90.73841873 -61.5390625 79.3125 C-70.92133153 70.48992676 -76.51085091 59.64273853 -77.6953125 46.76171875 C-78.06801755 31.55845869 -74.16929243 18.44961876 -63.6015625 7.1875 C-56.18654574 0.316442 -48.18733159 -4.22076652 -38.3515625 -6.5 C-37.72507813 -6.68433594 -37.09859375 -6.86867187 -36.453125 -7.05859375 C-24.34317983 -9.60213242 -10.36591445 -6.61214476 0 0 Z " fill="#748D97" transform="translate(202.3515625,188.5)"/>
<path d="M0 0 C0.9280084 -0.0055344 1.8560168 -0.01106879 2.81214666 -0.0167709 C5.91137587 -0.0303478 9.00979564 -0.01542398 12.10900879 -0.00050354 C14.33511191 -0.00428778 16.56121268 -0.00978868 18.78730774 -0.01687622 C24.82652703 -0.03083425 30.86546153 -0.01965836 36.90466499 -0.00316501 C43.22615913 0.01068899 49.54763679 0.00422501 55.86914062 0.0007019 C66.4847943 -0.00199993 77.10032342 0.01138536 87.71594238 0.03465271 C98.6303731 0.05857219 109.54465422 0.06565641 120.45910645 0.05516052 C133.62297805 0.0425241 146.78676306 0.0450507 159.95063782 0.06081963 C164.97440711 0.06657664 169.99812634 0.06649896 175.02189636 0.06175423 C180.93824521 0.0569803 186.85438714 0.06710366 192.77069664 0.08870888 C194.94148244 0.0942712 197.11228814 0.09474715 199.28307533 0.08975601 C202.24729576 0.08379554 205.21088521 0.09632337 208.17504883 0.11352539 C209.03312936 0.10751535 209.8912099 0.1015053 210.77529287 0.09531313 C216.12049984 0.15167992 219.84881165 0.97399131 224.58752441 3.50120544 C228.70871094 7.83929652 229.95020496 11.35862897 229.87268066 17.37229919 C229.2677814 21.88832797 226.89163148 25.27860507 223.58752441 28.37620544 C220.32973345 30.20871286 217.27059925 30.62575293 213.56974316 30.63542652 C212.77536506 30.63988437 211.98098696 30.64434221 211.1625368 30.64893514 C210.29571774 30.64875078 209.42889868 30.64856641 208.53581238 30.64837646 C207.14764469 30.6538915 207.14764469 30.6538915 205.73143321 30.65951794 C202.62315529 30.67055167 199.51491079 30.67439808 196.40661621 30.6782074 C194.18095799 30.68447217 191.95530081 30.69111899 189.72964478 30.69812012 C183.67795538 30.71552586 177.62627387 30.72608029 171.57456565 30.73432565 C167.79479889 30.73947572 164.01503458 30.74555138 160.23526955 30.75183678 C149.76695304 30.76870336 139.29863767 30.78333915 128.83030987 30.79058552 C126.11534817 30.79249534 123.40038647 30.79441569 120.6854248 30.79637146 C120.01065343 30.7968552 119.33588206 30.79733894 118.64066307 30.79783734 C107.70746446 30.80613941 96.77437519 30.83148129 85.84122434 30.86395214 C74.61213121 30.8970297 63.3830916 30.91470207 52.15394336 30.91822976 C45.85083863 30.92058253 39.54790687 30.92957307 33.24484825 30.95469093 C27.31622508 30.97793546 21.38788922 30.98221931 15.45923233 30.97192955 C13.28359459 30.97143324 11.10794288 30.97778167 8.93234825 30.9914856 C5.96128244 31.00915288 2.99125359 31.00212344 0.02018738 30.98895264 C-1.27000296 31.00540651 -1.27000296 31.00540651 -2.58625776 31.02219278 C-8.33474606 30.96070302 -11.6723311 29.7915934 -16.41247559 26.50120544 C-19.25143273 23.05034276 -20.29785083 19.31790683 -20.91247559 14.93870544 C-20.31061163 10.80089077 -19.28730026 7.59218235 -16.41247559 4.50120544 C-10.78918059 0.62653323 -6.7449702 -0.07550047 0 0 Z " fill="#DCD2CD" transform="translate(211.4124755859375,388.49879455566406)"/>
<path d="M0 0 C0.9280084 -0.0055344 1.8560168 -0.01106879 2.81214666 -0.0167709 C5.91137587 -0.0303478 9.00979564 -0.01542398 12.10900879 -0.00050354 C14.33511191 -0.00428778 16.56121268 -0.00978868 18.78730774 -0.01687622 C24.82652703 -0.03083425 30.86546153 -0.01965836 36.90466499 -0.00316501 C43.22615913 0.01068899 49.54763679 0.00422501 55.86914062 0.0007019 C66.4847943 -0.00199993 77.10032342 0.01138536 87.71594238 0.03465271 C98.6303731 0.05857219 109.54465422 0.06565641 120.45910645 0.05516052 C133.62297805 0.0425241 146.78676306 0.0450507 159.95063782 0.06081963 C164.97440711 0.06657664 169.99812634 0.06649896 175.02189636 0.06175423 C180.93824521 0.0569803 186.85438714 0.06710366 192.77069664 0.08870888 C194.94148244 0.0942712 197.11228814 0.09474715 199.28307533 0.08975601 C202.24729576 0.08379554 205.21088521 0.09632337 208.17504883 0.11352539 C209.03312936 0.10751535 209.8912099 0.1015053 210.77529287 0.09531313 C216.12049984 0.15167992 219.84881165 0.97399131 224.58752441 3.50120544 C228.70871094 7.83929652 229.95020496 11.35862897 229.87268066 17.37229919 C229.2677814 21.88832797 226.89163148 25.27860507 223.58752441 28.37620544 C220.32973345 30.20871286 217.27059925 30.62575293 213.56974316 30.63542652 C212.77536506 30.63988437 211.98098696 30.64434221 211.1625368 30.64893514 C210.29571774 30.64875078 209.42889868 30.64856641 208.53581238 30.64837646 C207.14764469 30.6538915 207.14764469 30.6538915 205.73143321 30.65951794 C202.62315529 30.67055167 199.51491079 30.67439808 196.40661621 30.6782074 C194.18095799 30.68447217 191.95530081 30.69111899 189.72964478 30.69812012 C183.67795538 30.71552586 177.62627387 30.72608029 171.57456565 30.73432565 C167.79479889 30.73947572 164.01503458 30.74555138 160.23526955 30.75183678 C149.76695304 30.76870336 139.29863767 30.78333915 128.83030987 30.79058552 C126.11534817 30.79249534 123.40038647 30.79441569 120.6854248 30.79637146 C120.01065343 30.7968552 119.33588206 30.79733894 118.64066307 30.79783734 C107.70746446 30.80613941 96.77437519 30.83148129 85.84122434 30.86395214 C74.61213121 30.8970297 63.3830916 30.91470207 52.15394336 30.91822976 C45.85083863 30.92058253 39.54790687 30.92957307 33.24484825 30.95469093 C27.31622508 30.97793546 21.38788922 30.98221931 15.45923233 30.97192955 C13.28359459 30.97143324 11.10794288 30.97778167 8.93234825 30.9914856 C5.96128244 31.00915288 2.99125359 31.00212344 0.02018738 30.98895264 C-1.27000296 31.00540651 -1.27000296 31.00540651 -2.58625776 31.02219278 C-8.33474606 30.96070302 -11.6723311 29.7915934 -16.41247559 26.50120544 C-19.25143273 23.05034276 -20.29785083 19.31790683 -20.91247559 14.93870544 C-20.31061163 10.80089077 -19.28730026 7.59218235 -16.41247559 4.50120544 C-10.78918059 0.62653323 -6.7449702 -0.07550047 0 0 Z " fill="#DCD2CD" transform="translate(211.4124755859375,328.49879455566406)"/>
<path d="M0 0 C2.15979509 0.00311797 4.31816177 -0.02014793 6.4777832 -0.0456543 C20.16908268 -0.10960374 31.69005402 1.68337914 41.91723633 11.35473633 C53.64788278 23.74194881 56.14927489 38.00619967 55.96801758 54.55004883 C55.21227652 68.29598058 49.36565835 82.10950736 39.15942383 91.47973633 C29.1312283 99.15604235 18.83856003 100.71061457 6.53881836 100.74121094 C4.26673638 100.75314363 1.99734311 100.80241978 -0.27416992 100.8527832 C-1.73118805 100.86224553 -3.18822268 100.86948148 -4.64526367 100.87426758 C-5.95817383 100.88772217 -7.27108398 100.90117676 -8.6237793 100.91503906 C-13.35731628 100.13027182 -14.9172966 98.72043383 -18.23901367 95.31567383 C-19.48001421 91.59267222 -19.39456105 88.12988762 -19.40014648 84.25170898 C-19.40511139 83.43024887 -19.41007629 82.60878876 -19.41519165 81.76243591 C-19.42980433 79.04319422 -19.43661353 76.32401085 -19.44213867 73.60473633 C-19.44789055 71.71528115 -19.45364828 69.82582599 -19.45941162 67.93637085 C-19.46991884 63.9736097 -19.47576344 60.01086882 -19.47924805 56.0480957 C-19.48473435 50.97153499 -19.50876648 45.89524227 -19.53722 40.81876564 C-19.55584708 36.91540749 -19.561052 33.0121139 -19.56258392 29.10871506 C-19.56561046 27.23722238 -19.57363903 25.36573084 -19.5867691 23.49428177 C-19.60383224 20.87545643 -19.60194886 18.25728618 -19.59545898 15.63842773 C-19.60467377 14.86630447 -19.61388855 14.09418121 -19.62338257 13.29866028 C-19.58839458 8.78948089 -19.05926802 5.88045341 -16.23901367 2.31567383 C-11.37715146 -0.92556764 -5.68924475 -0.0171535 0 0 Z " fill="#566A6F" transform="translate(284.239013671875,180.684326171875)"/>
<path d="M0 0 C6.64219892 4.53736548 11.29609441 11.15238837 13.80859375 18.78125 C14.98776578 29.24297393 13.23249833 37.79537445 6.68359375 46.09375 C0.74277447 52.4460546 -7.5275233 55.87469468 -16.12890625 56.21875 C-24.50753649 56.13468348 -30.97144532 53.34612675 -37.35546875 47.953125 C-43.49416946 41.52708085 -46.34195383 34.23106502 -46.81640625 25.40625 C-46.50032524 16.47169352 -42.88418028 8.90846201 -36.37890625 2.78125 C-25.31991013 -5.78528298 -12.38573754 -6.88832462 0 0 Z " fill="#F3EEE9" transform="translate(419.19140625,205.21875)"/>
<path d="M0 0 C6.64219892 4.53736548 11.29609441 11.15238837 13.80859375 18.78125 C14.98776578 29.24297393 13.23249833 37.79537445 6.68359375 46.09375 C0.74277447 52.4460546 -7.5275233 55.87469468 -16.12890625 56.21875 C-24.50753649 56.13468348 -30.97144532 53.34612675 -37.35546875 47.953125 C-43.49416946 41.52708085 -46.34195383 34.23106502 -46.81640625 25.40625 C-46.50032524 16.47169352 -42.88418028 8.90846201 -36.37890625 2.78125 C-25.31991013 -5.78528298 -12.38573754 -6.88832462 0 0 Z " fill="#FDF3F3" transform="translate(191.19140625,205.21875)"/>
<path d="M0 0 C1.53729767 -0.01925285 1.53729767 -0.01925285 3.10565186 -0.03889465 C4.22224182 -0.04628159 5.33883179 -0.05366852 6.48925781 -0.0612793 C8.20063934 -0.07338692 8.20063934 -0.07338692 9.94659424 -0.08573914 C12.36770091 -0.09960091 14.78882731 -0.11031364 17.20996094 -0.11816406 C20.91281272 -0.13536072 24.61476834 -0.17922769 28.31738281 -0.22338867 C30.66633456 -0.2335164 33.01529392 -0.24203225 35.36425781 -0.2487793 C36.47275085 -0.26628738 37.5812439 -0.28379547 38.72332764 -0.30183411 C46.42875674 -0.2801056 46.42875674 -0.2801056 50.36914062 2.07861328 C53.57503714 5.76831341 53.52113753 8.32786984 53.19238281 13.17700195 C51.97582045 15.91426727 51.03295034 17.59304999 48.56738281 19.3059082 C45.20974152 20.53741151 41.96520998 20.38857427 38.44238281 20.30200195 C37.39630859 20.2884668 37.39630859 20.2884668 36.32910156 20.2746582 C34.61671324 20.25120083 32.90450277 20.215333 31.19238281 20.17700195 C31.19904465 21.06569977 31.20570648 21.95439758 31.21257019 22.87002563 C31.27274936 31.25632977 31.31839183 39.6425611 31.34781933 48.02903175 C31.36345706 52.34033058 31.38466057 56.65145057 31.41870117 60.96264648 C31.4513624 65.12532681 31.46925007 69.2878354 31.47701454 73.450634 C31.48254594 75.03662188 31.49334747 76.62260065 31.50957298 78.20851517 C31.53143772 80.43470622 31.53434605 82.66019299 31.53295898 84.88647461 C31.53962082 86.15222321 31.54628265 87.4179718 31.55314636 88.72207642 C31.15676164 92.51813538 30.15535971 94.92581262 28.19238281 98.17700195 C25.70782177 100.12915706 23.92770234 100.21068856 20.75488281 100.61450195 C16.25706324 100.06213815 14.95930844 98.67634907 12.19238281 95.17700195 C11.02357102 91.67056657 11.07239854 88.92798727 11.07885742 85.22705078 C11.0787114 84.52435562 11.07856537 83.82166046 11.07841492 83.09767151 C11.07911125 80.77642727 11.08689055 78.45526341 11.09472656 76.1340332 C11.09659174 74.52406356 11.09801517 72.91409334 11.09901428 71.30412292 C11.10283164 67.06758048 11.11265527 62.83107235 11.12371826 58.59454346 C11.13394917 54.27112288 11.13851551 49.94769677 11.14355469 45.62426758 C11.15427822 37.14182996 11.17134528 28.65942023 11.19238281 20.17700195 C10.09539062 20.23500977 8.99839844 20.29301758 7.86816406 20.3527832 C6.41377967 20.39969883 4.95934907 20.44519706 3.50488281 20.48950195 C2.78365234 20.53139648 2.06242187 20.57329102 1.31933594 20.61645508 C-2.9041103 20.71288079 -4.34588699 20.55089972 -7.76464844 17.7824707 C-10.94297105 13.72904588 -11.33487148 11.36166914 -10.80761719 6.17700195 C-8.37011719 3.30200195 -8.37011719 3.30200195 -5.80761719 1.17700195 C-4.1645593 -0.46605593 -2.26494872 0.02459713 0 0 Z " fill="#738C96" transform="translate(69.8076171875,180.822998046875)"/>
<path d="M0 0 C1.47298946 -0.00269889 2.94597717 -0.00658461 4.41896057 -0.01159668 C7.49798637 -0.01747504 10.5765462 -0.00898453 13.65551758 0.00976562 C17.58402153 0.03253485 21.51143097 0.0194356 25.43989468 -0.00452423 C28.47960003 -0.01904502 31.51905005 -0.0143474 34.5587635 -0.00401306 C36.00630895 -0.00136201 37.45387827 -0.00455793 38.9013958 -0.01393127 C46.92695097 -0.05449884 53.17647126 -0.04634743 59.94140625 4.53125 C63.23543511 8.41551589 64.68492118 12.26041641 64.390625 17.4765625 C63.539279 21.37054506 61.68230059 24.65649803 58.94140625 27.53125 C54.51156287 30.15166565 51.25174772 30.91171898 46.12915039 30.93530273 C45.47627548 30.94216599 44.82340057 30.94902924 44.15074158 30.95610046 C42.00912245 30.97428631 39.86824169 30.9705431 37.7265625 30.96484375 C36.22732813 30.96940961 34.72809585 30.97471639 33.22886658 30.98072815 C30.09267656 30.98964314 26.95674141 30.98725479 23.82055664 30.97729492 C19.81462186 30.96580844 15.80956902 30.98601901 11.80375004 31.01521206 C8.7092079 31.03361675 5.61487545 31.03327317 2.52029228 31.02757454 C1.04399822 31.02742184 -0.43231053 31.03342373 -1.90855217 31.04586601 C-16.22175335 31.14951628 -16.22175335 31.14951628 -22.05859375 26.53125 C-24.89755089 23.08038731 -25.94396899 19.34795139 -26.55859375 14.96875 C-25.72974224 9.27039588 -23.9518558 6.00775078 -19.40234375 2.4597168 C-13.48338939 -0.82632355 -6.5746851 -0.04250529 0 0 Z " fill="#EBE1DC" transform="translate(97.05859375,388.46875)"/>
<path d="M0 0 C1.47298946 -0.00269889 2.94597717 -0.00658461 4.41896057 -0.01159668 C7.49798637 -0.01747504 10.5765462 -0.00898453 13.65551758 0.00976562 C17.58402153 0.03253485 21.51143097 0.0194356 25.43989468 -0.00452423 C28.47960003 -0.01904502 31.51905005 -0.0143474 34.5587635 -0.00401306 C36.00630895 -0.00136201 37.45387827 -0.00455793 38.9013958 -0.01393127 C46.92695097 -0.05449884 53.17647126 -0.04634743 59.94140625 4.53125 C63.23543511 8.41551589 64.68492118 12.26041641 64.390625 17.4765625 C63.539279 21.37054506 61.68230059 24.65649803 58.94140625 27.53125 C54.51156287 30.15166565 51.25174772 30.91171898 46.12915039 30.93530273 C45.47627548 30.94216599 44.82340057 30.94902924 44.15074158 30.95610046 C42.00912245 30.97428631 39.86824169 30.9705431 37.7265625 30.96484375 C36.22732813 30.96940961 34.72809585 30.97471639 33.22886658 30.98072815 C30.09267656 30.98964314 26.95674141 30.98725479 23.82055664 30.97729492 C19.81462186 30.96580844 15.80956902 30.98601901 11.80375004 31.01521206 C8.7092079 31.03361675 5.61487545 31.03327317 2.52029228 31.02757454 C1.04399822 31.02742184 -0.43231053 31.03342373 -1.90855217 31.04586601 C-16.22175335 31.14951628 -16.22175335 31.14951628 -22.05859375 26.53125 C-24.89755089 23.08038731 -25.94396899 19.34795139 -26.55859375 14.96875 C-25.72974224 9.27039588 -23.9518558 6.00775078 -19.40234375 2.4597168 C-13.48338939 -0.82632355 -6.5746851 -0.04250529 0 0 Z " fill="#EBE1DC" transform="translate(97.05859375,328.46875)"/>
<path d="M0 0 C1.78302269 0.00848969 1.78302269 0.00848969 3.60206604 0.01715088 C7.38226332 0.03946274 11.16149755 0.08965237 14.94140625 0.140625 C17.51105398 0.16069658 20.08071663 0.17894619 22.65039062 0.1953125 C28.9355614 0.23590127 35.21866144 0.31420865 41.50390625 0.390625 C41.50390625 10.290625 41.50390625 20.190625 41.50390625 30.390625 C33.94103902 30.48257475 26.38012 30.56218278 18.81713867 30.61035156 C16.24578266 30.63043649 13.67447216 30.65770979 11.10327148 30.69238281 C7.40206659 30.74103581 3.70146692 30.76362583 0 30.78125 C-1.71758263 30.81221771 -1.71758263 30.81221771 -3.46986389 30.84381104 C-10.053256 30.84565169 -14.15999769 30.35800502 -19.49609375 26.390625 C-22.33505089 22.93976231 -23.38146899 19.20732639 -23.99609375 14.828125 C-23.3942298 10.69031033 -22.37091843 7.48160191 -19.49609375 4.390625 C-13.17402257 -0.27913649 -7.68618835 -0.13858062 0 0 Z " fill="#EBE1DC" transform="translate(214.49609375,388.609375)"/>
<path d="M0 0 C1.78302269 0.00848969 1.78302269 0.00848969 3.60206604 0.01715088 C7.38226332 0.03946274 11.16149755 0.08965237 14.94140625 0.140625 C17.51105398 0.16069658 20.08071663 0.17894619 22.65039062 0.1953125 C28.9355614 0.23590127 35.21866144 0.31420865 41.50390625 0.390625 C41.50390625 10.290625 41.50390625 20.190625 41.50390625 30.390625 C33.94103902 30.48257475 26.38012 30.56218278 18.81713867 30.61035156 C16.24578266 30.63043649 13.67447216 30.65770979 11.10327148 30.69238281 C7.40206659 30.74103581 3.70146692 30.76362583 0 30.78125 C-1.71758263 30.81221771 -1.71758263 30.81221771 -3.46986389 30.84381104 C-10.053256 30.84565169 -14.15999769 30.35800502 -19.49609375 26.390625 C-22.33505089 22.93976231 -23.38146899 19.20732639 -23.99609375 14.828125 C-23.3942298 10.69031033 -22.37091843 7.48160191 -19.49609375 4.390625 C-13.17402257 -0.27913649 -7.68618835 -0.13858062 0 0 Z " fill="#EBE1DC" transform="translate(214.49609375,328.609375)"/>
<path d="M0 0 C21.64025696 0 21.64025696 0 27.98828125 5.82421875 C35.05438897 15.7667951 36.42322461 25.99710182 35 38 C33.22689191 45.86406271 30.41142982 51.67436536 24.0625 56.73046875 C15.68258175 61.88856237 11.48471871 60 0 60 C0 40.2 0 20.4 0 0 Z " fill="#F3EEE9" transform="translate(285,201)"/>
</svg>
